# File produced by Open Asset Import Library (http://www.assimp.sf.net)
# (assimp v5.0.567765771)

mtllib cube.mtl

# 8 vertex positions
v  -50 -50 -50
v  50 -50 -50
v  50 -50 50
v  -50 -50 50
v  -50 50 -50
v  50 50 -50
v  50 50 50
v  -50 50 50

# 4 UV coordinates
vt 1 0 1
vt 0 0 1
vt 0 1 1
vt 1 1 1

# 6 vertex normals
vn 0 -1 0
vn 0 0 -1
vn 1 0 0
vn 0 0 1
vn -1 0 0
vn 0 1 0

# Mesh 'Cube' with 6 faces
g Cube
usemtl __defaultMaterial__
f  1/1/1 2/2/1 3/3/1 4/4/1
f  1/1/2 5/4/2 6/3/2 2/2/2
f  2/1/3 6/2/3 7/3/3 3/4/3
f  4/1/4 3/2/4 7/3/4 8/4/4
f  1/1/5 4/4/5 8/3/5 5/2/5
f  5/1/6 8/4/6 7/3/6 6/2/6

